<svg class="compass-icon" fill="#fff" height="1.8em" viewBox="0 0 67.731 67.731" xmlns="http://www.w3.org/2000/svg"><path d="m135.772 101.812-7.157-.73c-1.669-10.98-11.344-20.654-22.323-22.323l-.73-7.144c-.536-2.136-3.571-2.136-4.107 0l-.73 7.157c-10.98 1.669-20.654 11.344-22.323 22.323l-7.144.73c-2.136.536-2.136 3.571 0 4.107l7.157.73c1.669 10.98 11.344 20.654 22.323 22.323l.73 7.157c.536 2.136 3.571 2.136 4.107 0l.73-7.157c10.98-1.669 20.655-11.344 22.323-22.323l7.157-.73c2.136-.536 2.136-3.571 0-4.107zm-11.687-1.323-15.126-2.074-2.064-15.126c7.718 1.857 15.332 9.471 17.19 17.19zm-23.963-17.198-2.064 15.124-15.126 2.064c1.857-7.719 9.471-15.333 17.19-17.19zm-17.198 23.964 15.134 2.06 2.064 15.127c-7.719-1.858-15.333-9.472-17.19-17.19zm23.963 17.198 2.064-15.127 15.126-2.063c-1.86 7.712-9.47 15.32-17.182 17.179z" style="stroke-width:.264583" transform="translate(-69.656 -70.013)"/></svg>