<svg fill="#fff"  class="fire-icon" xmlns="http://www.w3.org/2000/svg" viewBox="0 0 19.534 26.387"><path d="M7.15 26.05C2.894 24.876.006 21.028.006 16.53c0-4.036 2.718-8.378 4.38-6.999.289.24.383.993.383 3.074 0 3.3.46 4.508 1.997 5.237 2.512 1.192 5.206-1.18 4.506-3.969-.097-.386-.99-1.562-1.986-2.614C7.04 8.887 6.583 8.026 6.583 6.176c0-2.333 2.02-6.182 3.244-6.182.59 0 1.292.98 1.292 1.805 0 1.227.951 2.596 3.727 5.362 3.655 3.642 4.493 5.216 4.671 8.776.143 2.847-.365 4.593-1.93 6.644-2.332 3.054-6.69 4.503-10.437 3.47z"/></svg>