<svg class="liebevoll-jetzt-icon" fill="#fff" height="1.5em" xmlns="http://www.w3.org/2000/svg" xml:space="preserve" viewBox="0 0 42 42"><path fill="#e52220" d="M32.554 33.551c0-.2.2-.5 0-.7-.2-.2-.1 0-.3-.1-.5-.2-1.2-.1-1.7.2-.7.3-1.7 1.5-1.3 2.4.2.3.5.6.8.8.5.3.8-.1 1.2-.4.4-.3.7-.5.9-1 .1-.1.8-1.2.4-1.2z"/>  <path fill="#fff" d="M14.426 41.57c-1.512-.808-2.234-2.322-2.403-5.038-.104-1.671.136-3.65.844-6.962.497-2.327.545-2.56.81-3.95.236-1.234 3.381-10.767 4.237-12.842.688-1.667 3.022-6.084 3.379-6.394.158-.137.708-.948 1.22-1.802C24.243 1.704 25.935 0 27.065 0c1.134 0 2.303 1.066 2.763 2.521.274.864.133 2.528-.34 4.032-.551 1.754-2.928 6.42-3.994 7.84a37.025 37.025 0 0 0-1.753 2.622c-1.173 1.957-2.233 3.525-4.002 5.92-.831 1.126-1.628 2.306-1.77 2.621-.422.932-1.792 6.558-1.836 7.536-.023.496-.095 1.73-.16 2.742-.175 2.714.265 3.687 1.54 3.407.737-.162 1.569-.967 3.197-3.092 2.302-3.005 5.204-7.528 6.524-10.17.622-1.243 1.228-2.06 1.528-2.06.394 0 .46 1.003.131 1.975-.413 1.219-4.57 8.126-6.186 10.277-1.727 2.3-4.191 4.785-5.233 5.277-1.194.564-2.15.602-3.048.123zm6.76-23.631c2.714-4.414 5.248-9.115 5.42-10.052.027-.148.172-.553.322-.9.397-.915.872-2.532.997-3.386.077-.532.04-.833-.132-1.065-.232-.315-.259-.305-.918.33-1.692 1.632-4.116 7.08-6.488 14.581-.484 1.532-.88 2.855-.881 2.94-.002.255.192-.026 1.68-2.449z"/></svg>