<svg class="quest-icon" viewBox="0 0 4.69 5.987" fill="#fff" height="1.3em" xmlns="http://www.w3.org/2000/svg"><path d="M2.395 0 0 .898v2.096C0 4.79 2.395 5.987 2.395 5.987S4.79 4.79 4.79 2.994V.898zm.026 1.262c.518 0 1.07.404 1.07.937 0 .707-.764.718-.764.98v.035c0 .08-.065.146-.146.146H2.14a.146.146 0 0 1-.146-.146v-.06c0-.377.285-.528.501-.649.186-.104.3-.174.3-.312 0-.182-.232-.303-.42-.303-.239 0-.352.11-.505.302a.147.147 0 0 1-.203.025l-.263-.2a.147.147 0 0 1-.032-.2c.248-.355.563-.555 1.05-.555zM2.36 3.54a.423.423 0 1 1 0 .846.423.423 0 0 1 0-.846z"/></svg>