<?xml version="1.0" encoding="UTF-8" standalone="no"?>
<svg
   version="1.0"
   width="1665.9698pt"
   height="1477.7179pt"
   viewBox="0 0 1665.9699 1477.7179"
   preserveAspectRatio="xMidYMid meet"
   id="svg8"
   sodipodi:docname="fear.svg"
   inkscape:version="1.1.2 (0a00cf5339, 2022-02-04)"
   xmlns:inkscape="http://www.inkscape.org/namespaces/inkscape"
   xmlns:sodipodi="http://sodipodi.sourceforge.net/DTD/sodipodi-0.dtd"
   xmlns="http://www.w3.org/2000/svg"
   xmlns:svg="http://www.w3.org/2000/svg">
  <defs
     id="defs12" />
  <sodipodi:namedview
     id="namedview10"
     pagecolor="#ffffff"
     bordercolor="#666666"
     borderopacity="1.0"
     inkscape:pageshadow="2"
     inkscape:pageopacity="0.0"
     inkscape:pagecheckerboard="0"
     inkscape:document-units="pt"
     showgrid="false"
     inkscape:zoom="0.13385319"
     inkscape:cx="-526.69645"
     inkscape:cy="1016.0385"
     inkscape:window-width="1920"
     inkscape:window-height="1013"
     inkscape:window-x="0"
     inkscape:window-y="0"
     inkscape:window-maximized="1"
     inkscape:current-layer="layer2"
     fit-margin-top="0"
     fit-margin-left="0"
     fit-margin-right="0"
     fit-margin-bottom="0" />
  <metadata
     id="metadata2">
Created by potrace 1.15, written by Peter Selinger 2001-2017
</metadata>
  <g
     inkscape:groupmode="layer"
     id="layer2"
     inkscape:label="Layer 2"
     transform="translate(181.49518,1.2055578e-5)">
    <path
       style="fill:#7a9e2e;fill-opacity:1;fill-rule:evenodd;stroke:none;stroke-width:0.755906;stroke-linecap:round;stroke-linejoin:bevel;stroke-opacity:0.988235"
       id="path5613"
       sodipodi:type="arc"
       sodipodi:cx="651.48975"
       sodipodi:cy="1192.951"
       sodipodi:rx="832.98492"
       sodipodi:ry="284.76678"
       sodipodi:start="0"
       sodipodi:end="6.2796074"
       sodipodi:open="true"
       sodipodi:arc-type="arc"
       d="M 1484.4747,1192.951 A 832.98492,284.76678 0 0 1 652.23483,1477.7177 832.98492,284.76678 0 0 1 -181.49385,1193.4605 832.98492,284.76678 0 0 1 649.25449,908.18529 832.98492,284.76678 0 0 1 1484.4693,1191.9322" />
  </g>
  <g
     inkscape:groupmode="layer"
     id="layer1"
     inkscape:label="Layer 1"
     transform="translate(181.49518,1.2055578e-5)">
    <g
       transform="matrix(0.1,0,0,-0.1,-0.112,1065.8509)"
       fill="#000000"
       stroke="none"
       id="g6">
      <path
         d="m 8423,10646 c -23,-8 -62,-25 -85,-39 -24,-14 -623,-606 -1333,-1316 L 5715,8000 4860,8853 c -911,910 -875,877 -969,877 -69,0 -145,-51 -182,-122 -23,-45 -25,-125 -4,-176 11,-26 254,-275 808,-830 l 792,-792 H 3090 C 1659,7810 846,7806 794,7800 679,7785 607,7765 512,7720 411,7672 357,7635 276,7559 162,7453 76,7308 28,7144 L 5,7065 2,3945 C 0,513 -4,738 60,572 108,448 158,372 260,269 363,165 448,108 574,59 739,-5 270,0 6400,0 c 6130,0 5661,-5 5826,59 122,48 212,107 310,205 98,98 157,188 205,310 63,162 59,-54 59,3335 -1,2535 -3,3099 -14,3161 -62,345 -310,613 -655,709 l -96,26 -2960,3 -2960,2 1247,1248 c 1025,1025 1251,1257 1274,1302 37,72 41,182 8,226 -50,67 -131,89 -221,60 z m 577,-3740 c 258,-42 485,-178 646,-388 95,-123 172,-306 194,-463 8,-57 10,-678 8,-2200 l -3,-2120 -23,-85 c -13,-47 -44,-130 -71,-185 -132,-276 -360,-464 -662,-547 l -84,-23 H 5365 1725 l -82,22 c -189,50 -325,127 -458,258 -189,185 -281,383 -305,650 -13,149 -13,4012 0,4161 42,470 374,836 833,919 110,20 7165,21 7287,1 z m 2349,-1711 c 205,-49 384,-229 431,-434 17,-71 17,-192 1,-261 -49,-209 -218,-382 -426,-435 -76,-19 -214,-19 -289,0 -152,40 -302,159 -369,295 -138,275 -52,594 204,760 56,36 149,73 209,83 59,10 180,6 239,-8 z m -17,-1446 c 162,-33 329,-162 400,-309 47,-97 62,-164 60,-275 -1,-160 -62,-295 -184,-411 -113,-107 -246,-157 -409,-156 -371,4 -642,362 -549,726 40,157 139,284 288,369 102,57 271,81 394,56 z"
         id="path4" />
    </g>
    <g
       id="g24"
       transform="matrix(2.5738673,0,0,2.5738673,218.26476,367.97831)"
       style="fill:#4d4d4d;fill-opacity:1">
      <g
         id="g22"
         style="fill:#4d4d4d;fill-opacity:1">
        <g
           id="g20"
           style="fill:#4d4d4d;fill-opacity:1">
          <path
             fill="#000000"
             d="m 10.8,67.2 c -0.2,1.5 -0.5,3.6 -0.7,4.7 -0.2,1.8 -0.2,1.9 2,2.3 1.8,0.3 55.1,6.5 89.2,10.4 l 6.8,0.7 0.2,7.9 0.2,7.8 H 91 73.6 l -3.7,1.8 c -8.1,3.9 -20,13.9 -23.3,19.6 l -1.1,2 h 92.5 92.5 l -0.4,-2.8 c -0.9,-6.1 -7,-14.8 -13.3,-18.9 L 214,101 h -17.4 -17.4 v -9.4 c 0,-10.7 -0.7,-13.3 -4.4,-15.9 l -2.1,-1.5 h -28.9 c -25.7,0 -29.1,0.1 -30.5,1 -1.5,1 -4.4,0.7 -51.9,-4.9 l -50.3,-6 z"
             id="path4-4"
             style="fill:#4d4d4d;fill-opacity:1" />
          <path
             fill="#000000"
             d="m 43.2,129.5 c -9.2,1.8 -15,9.2 -14,17.7 1.3,11 9.7,22.1 26.3,34.5 8.7,6.6 12.1,8.3 17.9,9.2 2.6,0.4 25.7,0.7 65.6,0.7 50.6,0 62.3,-0.2 65.7,-0.9 21.4,-4.6 41.5,-26.1 41.5,-44.4 -0.1,-4.1 -0.3,-5.5 -1.6,-8 -2,-3.9 -3.6,-5.4 -8.2,-7.5 l -3.7,-1.7 -93.3,-0.1 c -51.5,0 -94.7,0.2 -96.2,0.5 z m 13.9,13.8 c 3,1.2 4.4,2.5 5.8,5.4 2.1,4.1 1.4,9.1 -1.8,12.4 -2.4,2.6 -4.6,3.5 -8.1,3.5 -6.4,0 -11.1,-4.7 -11.1,-11.1 0,-7.8 8,-13.2 15.2,-10.2 z m 167.5,0 c 3,1.2 4.4,2.5 5.8,5.4 2.1,4.1 1.4,9.1 -1.8,12.4 -2.4,2.6 -4.6,3.5 -8.1,3.5 -6.4,0 -11.1,-4.7 -11.1,-11.1 0,-7.8 8.1,-13.2 15.2,-10.2 z m -136.3,5.3 c 3.4,1 8.5,6.1 9.5,9.5 1.8,6 0.5,11 -3.9,15.3 -4.4,4.4 -9.3,5.7 -15.3,3.9 -3.4,-1 -8.5,-6.1 -9.5,-9.5 -1.8,-6 -0.5,-11 3.9,-15.3 4.3,-4.4 9.3,-5.6 15.3,-3.9 z m 36.4,0.3 c 1.8,0.6 4,2 5.6,3.7 6.3,6.5 5.9,16.1 -1,22 -3.3,2.8 -5.9,3.6 -10.7,3.3 -7.7,-0.5 -13.2,-6 -13.7,-13.7 -0.3,-4.8 0.5,-7.4 3.3,-10.7 4.3,-5.1 10.2,-6.7 16.5,-4.6 z m 35.7,-0.3 c 3,0.8 7.6,5 9.1,8.3 1.5,3.3 1.5,9.1 0,12.3 -1.5,3.2 -6.1,7.5 -9.1,8.3 -9.4,2.6 -18.7,-3.3 -19.8,-12.7 -0.7,-6.1 2.6,-12 8.4,-15 3.6,-2 7.2,-2.4 11.4,-1.2 z m 37.6,0.8 c 11.6,5.4 11.8,21.1 0.4,27 -5.7,3 -11.8,2.2 -16.6,-2.2 -3.6,-3.3 -5.1,-6.5 -5.1,-11.2 0,-4.8 1.5,-8 5.2,-11.3 4.8,-4.1 10.5,-5 16.1,-2.3 z"
             id="path6"
             style="fill:#4d4d4d;fill-opacity:1" />
          <path
             fill="#000000"
             d="m 49.6,150.1 c -1,0.9 -1.5,2.2 -1.5,3.4 0,1.2 0.6,2.5 1.5,3.4 0.9,1 2.2,1.5 3.4,1.5 1.2,0 2.5,-0.6 3.4,-1.5 1,-0.9 1.5,-2.2 1.5,-3.4 0,-1.2 -0.6,-2.5 -1.5,-3.4 -0.9,-1 -2.2,-1.5 -3.4,-1.5 -1.2,-0.1 -2.5,0.5 -3.4,1.5 z"
             id="path8"
             style="fill:#4d4d4d;fill-opacity:1" />
          <path
             fill="#000000"
             d="m 217.1,150.1 c -3.1,3 -0.9,8.3 3.4,8.3 2.5,0 4.9,-2.4 4.9,-4.9 0,-2.5 -2.4,-4.9 -4.9,-4.9 -1.2,-0.1 -2.5,0.5 -3.4,1.5 z"
             id="path10"
             style="fill:#4d4d4d;fill-opacity:1" />
          <path
             fill="#000000"
             d="m 80.7,156.9 c -5.8,3 -5.1,10.4 1.1,12.6 2.8,0.9 6.2,-0.8 7.8,-3.9 1,-2.1 1,-2.6 0.3,-4.6 -1.6,-4.1 -5.6,-5.8 -9.2,-4.1 z"
             id="path12"
             style="fill:#4d4d4d;fill-opacity:1" />
          <path
             fill="#000000"
             d="m 118.3,156.3 c -3.9,1.2 -5.9,4.4 -5.3,7.9 1.5,7.9 13.3,6.9 13.3,-1.2 0,-3.1 -1.3,-5.1 -4.1,-6.3 -2.2,-0.9 -2.5,-0.9 -3.9,-0.4 z"
             id="path14"
             style="fill:#4d4d4d;fill-opacity:1" />
          <path
             fill="#000000"
             d="m 153,156.8 c -2.6,1.2 -3.9,3.3 -3.9,6.2 0,3 1.4,5.1 4.1,6.2 5.7,2.4 11.3,-3.5 8.6,-9.1 -1.7,-3.4 -5.4,-4.8 -8.8,-3.3 z"
             id="path16"
             style="fill:#4d4d4d;fill-opacity:1" />
          <path
             fill="#000000"
             d="m 190.3,156.3 c -3.9,1.2 -5.9,4.4 -5.3,7.9 1.5,7.9 13.3,6.9 13.3,-1.2 0,-3.1 -1.3,-5.1 -4.1,-6.3 -2.1,-0.9 -2.4,-0.9 -3.9,-0.4 z"
             id="path18"
             style="fill:#4d4d4d;fill-opacity:1" />
        </g>
      </g>
    </g>
    <path
       style="fill:#ffe6d5;fill-opacity:1;fill-rule:evenodd;stroke:#666666;stroke-width:2.11773;stroke-linecap:round;stroke-linejoin:bevel;stroke-opacity:0.988235"
       d="m 151.17315,967.85101 c -12.40189,-5.05252 -21.29641,-11.5473 -33.92166,-24.7698 C 87.775017,912.21046 89.753397,930.01621 88.713717,686.23725 87.772325,465.50614 88.31492,452.91249 99.730542,430.53603 106.79782,416.68301 123.22075,398.58939 136.11628,390.4488 161.3712,374.50608 144.36817,375.11433 542.2112,375.92146 l 365.5077,0.74154 18.66802,9.19078 c 22.70933,11.18042 41.3538,30.89002 50.40045,53.27981 l 6.45413,15.97356 -0.18518,221.7598 -0.18517,221.75981 -8.84318,17.96295 c -10.78275,21.90293 -27.66532,39.14708 -48.1998,49.23225 l -15.42772,7.57695 -371.2089,0.6501 -371.20894,0.6501 z m 589.52109,-107.8287 c 26.77076,-3.86955 51.21536,-17.178 74.36501,-40.48702 26.46307,-26.64518 36.26355,-46.44555 36.40395,-73.54901 0.12105,-23.37305 -4.53323,-31.93854 -22.4673,-41.34654 -10.94085,-5.73948 -13.41773,-5.79204 -256.7388,-5.44596 -238.26429,0.33888 -246.01338,0.5156 -256.34429,5.84684 -23.35032,12.04989 -29.47107,36.37617 -16.28126,64.70832 9.56941,20.5554 23.75628,37.03477 50.26383,58.38615 27.36429,22.04145 40.46637,29.11522 58.96376,31.8345 20.72808,3.04725 310.79917,3.09322 331.8351,0.0525 z m 70.39338,-180.15454 c -3.99547,-17.71529 -17.95785,-37.95869 -32.29087,-46.817 -8.13368,-5.02689 -13.91445,-5.64664 -52.66917,-5.64664 h -43.5327 l -2.0103,-26.81367 c -1.73039,-23.08002 -3.01581,-28.00866 -9.2315,-35.39559 l -7.22121,-8.58191 -92.58713,1.45793 -92.58709,1.45792 -116.02143,-13.69969 c -63.8118,-7.53483 -116.27099,-13.37976 -116.57598,-12.98875 -2.10192,2.69474 -3.70364,24.46078 -1.88282,25.5861 1.24583,0.76997 57.64235,7.86205 125.32558,15.76017 67.68321,7.89812 123.27423,14.59332 123.53553,14.87821 0.26139,0.2849 1.37672,9.02778 2.47864,19.42863 l 2.00346,18.91065 h -47.38248 -47.38248 l -21.30182,13.98442 c -19.59343,12.8629 -47.07742,39.22262 -47.07742,45.15169 0,1.44421 100.95595,2.49858 239.2398,2.49858 h 239.23982 z"
       id="path3476" />
    <path
       style="fill:#ffe6d5;fill-opacity:1;fill-rule:evenodd;stroke:#666666;stroke-width:2.11773;stroke-linecap:round;stroke-linejoin:bevel;stroke-opacity:0.988235"
       d="m 151.17315,965.22061 c -17.82401,-8.2131 -38.65539,-26.68882 -47.92409,-42.50467 -6.203015,-10.5846 -7.554852,-17.31083 -9.657148,-48.0501 -3.290062,-48.10658 -3.161115,-386.29666 0.157035,-411.84191 2.921603,-22.49241 7.370843,-32.83797 21.624263,-50.28163 16.55371,-20.25879 33.05212,-28.78448 61.49223,-31.77657 13.82396,-1.45437 180.28563,-2.62435 377.34262,-2.65217 l 352.60656,-0.0498 16.86338,8.98811 c 22.56757,12.02838 40.62022,30.66986 50.24595,51.88467 l 7.91677,17.44834 v 220.29355 220.29353 l -8.90122,16.7004 c -11.7903,22.1208 -25.32195,36.52013 -45.56475,48.48645 l -16.6446,9.83925 -372.77458,-0.1614 -372.77454,-0.16132 z m 535.25127,-102.0564 67.38795,-1.82842 21.67373,-10.71405 c 25.61625,-12.66308 54.84255,-40.20908 67.51335,-63.63195 6.71752,-12.4179 8.43277,-19.38578 9.27622,-37.68235 1.19123,-25.84262 -3.45404,-36.66643 -19.49505,-45.42432 -8.6898,-4.74436 -23.87932,-5.03878 -259.97015,-5.03878 H 322.06934 l -10.86182,6.752 c -14.18574,8.81824 -22.70814,27.09385 -20.1359,43.17978 4.22792,26.43994 22.62673,52.61802 55.81426,79.41312 40.45863,32.66572 41.1685,32.8875 111.05994,34.69492 87.70516,2.26815 152.28856,2.34728 228.4786,0.28013 z M 813.74607,684.80592 c 0,-10.38141 -10.80105,-31.52984 -22.21252,-43.49193 -13.2387,-13.87756 -24.86108,-16.67699 -69.31613,-16.69581 l -36.8979,-0.0156 -1.86945,-18.91065 c -2.68703,-27.18054 -5.98709,-38.0118 -13.82487,-45.37499 l -6.90655,-6.48838 -90.4797,1.95258 -90.47973,1.95258 -96.6544,-11.40438 C 331.9449,540.05691 278.36474,534.61587 266.0378,534.23812 l -22.41261,-0.68681 -0.84353,13.05345 c -1.02926,15.92782 -10.63473,13.34926 97.49793,26.17303 118.97988,14.11017 149.19078,17.9792 150.48359,19.272 0.63004,0.63003 1.87487,8.21215 2.76628,16.84914 l 1.62077,15.70362 h -45.94749 -45.94748 l -18.84554,12.64248 c -19.92086,13.36389 -52.53486,43.54239 -52.53486,48.61173 0,4.09798 29.25475,4.67283 273.85414,5.38122 l 208.01707,0.60242 z"
       id="path3552" />
    <path
       style="fill:#ffe6d5;fill-opacity:1;fill-rule:evenodd;stroke:#666666;stroke-width:0.264716;stroke-linecap:round;stroke-linejoin:bevel;stroke-opacity:0.988235"
       d="m 615.35942,826.07289 c -6.39773,-0.68438 -13.38118,-3.24758 -18.72251,-6.87195 -3.04087,-2.06333 -7.56024,-6.53873 -9.63755,-9.5436 -2.54311,-3.67875 -4.68385,-8.43398 -5.82223,-12.93293 -1.2973,-5.12692 -1.37792,-11.96302 -0.19759,-16.75335 2.00597,-8.14117 6.13945,-14.9997 12.24256,-20.31345 6.15277,-5.35702 14.05203,-9.24007 21.08673,-10.36559 4.84125,-0.77459 11.74689,-0.21541 16.82962,1.36282 7.89996,2.45295 18.55808,12.05707 22.75556,20.50522 4.40825,8.87235 4.48388,24.1617 0.16199,32.7438 -1.72569,3.42675 -4.84958,7.39095 -8.97994,11.3955 -5.69294,5.51955 -9.88404,8.19503 -15.00836,9.5808 -4.47095,1.20915 -10.20671,1.67423 -14.70828,1.19273 z m 8.42872,-21.67755 c 6.4641,-1.89863 11.41436,-7.3242 12.59058,-13.79933 1.45443,-8.0067 -3.41848,-16.51365 -11.24517,-19.6314 -2.36423,-0.94177 -6.78286,-1.26577 -9.51589,-0.6978 -4.83704,1.0053 -9.70705,4.59735 -11.76792,8.6799 -1.42856,2.82998 -1.83307,4.7868 -1.82825,8.84415 0.007,5.44155 1.69235,9.53063 5.20361,12.62138 1.79338,1.5786 5.08981,3.30675 7.64686,4.00882 2.38694,0.65535 6.63916,0.64313 8.91618,-0.0255 z"
       id="path3591" />
    <path
       style="fill:#ffe6d5;fill-opacity:1;fill-rule:evenodd;stroke:#666666;stroke-width:0.264716;stroke-linecap:round;stroke-linejoin:bevel;stroke-opacity:0.988235"
       d="m 522.20699,825.60564 c -6.59307,-0.69705 -13.87493,-3.33728 -18.69955,-6.78008 -5.00401,-3.57075 -10.00018,-9.9777 -12.26805,-15.73215 -2.92395,-7.41922 -3.80263,-17.925 -2.12899,-25.4547 1.50438,-6.76822 7.12431,-15.03127 13.92614,-20.4759 7.4272,-5.9451 16.72273,-8.75307 26.05082,-7.86923 9.59667,0.90931 17.04488,4.35863 23.77475,11.01038 16.25331,16.06455 16.0394,40.06658 -0.49536,55.58385 -5.3056,4.9791 -10.73897,8.04983 -16.23882,9.17738 -3.39792,0.69667 -10.01356,0.95347 -13.92094,0.54045 z m 8.56528,-21.53798 c 8.24029,-2.14635 13.33807,-9.4407 12.6478,-18.09757 -0.60824,-7.62818 -4.07193,-12.16118 -11.61717,-15.20363 -4.12599,-1.66372 -5.55435,-1.80607 -8.45706,-0.84285 -5.49782,1.82453 -9.60455,4.69035 -11.94278,8.33415 -4.18256,6.51795 -3.31699,15.56175 2.03053,21.216 4.13317,4.37018 11.10533,6.2175 17.33868,4.5939 z"
       id="path3630" />
    <path
       style="fill:#ffe6d5;fill-opacity:1;fill-rule:evenodd;stroke:#666666;stroke-width:0.264716;stroke-linecap:round;stroke-linejoin:bevel;stroke-opacity:0.988235"
       d="m 429.35952,825.95379 c -9.40164,-1.04678 -15.68009,-4.22678 -23.20785,-11.75453 -6.03925,-6.03922 -9.17302,-11.18325 -10.75244,-17.6499 -1.10463,-4.52272 -1.19801,-13.90395 -0.17605,-17.685 1.8303,-6.7716 5.08332,-12.09105 11.04649,-18.06352 7.51762,-7.52925 13.99439,-10.85693 23.13509,-11.88636 6.18513,-0.69659 15.29751,0.83913 19.91411,3.35616 7.39447,4.03155 16.10563,13.02382 19.31656,19.94002 3.14295,6.76973 4.01996,16.85708 2.10081,24.16358 -3.52831,13.43287 -17.72732,26.73195 -31.17577,29.19982 -2.98454,0.54765 -7.26246,0.70688 -10.20095,0.37973 z m 7.04918,-21.3798 c 5.66102,-1.3038 10.80325,-6.03585 13.66741,-12.5772 1.76834,-4.03868 0.66608,-9.43298 -2.96817,-14.52593 -2.89365,-4.0551 -6.65091,-6.44437 -11.42007,-7.26217 -7.06107,-1.21088 -14.96393,3.10597 -18.39486,10.04805 -1.2311,2.4909 -1.36201,3.03135 -1.48676,6.13717 -0.21195,5.27693 1.18246,9.0882 4.64805,12.7044 4.42688,4.61925 10.54934,6.72053 15.9544,5.47568 z"
       id="path3669" />
    <path
       style="fill:#ffe6d5;fill-opacity:1;fill-rule:evenodd;stroke:#666666;stroke-width:0.748729;stroke-linecap:round;stroke-linejoin:bevel;stroke-opacity:0.988235"
       d="m 700.17645,824.14869 c -9.6999,-3.3696 -18.19031,-10.98008 -23.42415,-20.99663 -2.05163,-3.92632 -2.32903,-5.814 -2.32903,-15.8481 0,-13.2777 1.22813,-16.51432 9.64183,-25.4106 9.29374,-9.8268 20.80448,-14.29358 32.03721,-12.43226 13.70419,2.27089 26.64942,12.07669 31.2234,23.65129 3.16341,8.00505 3.19259,20.3082 0.0669,28.20442 -7.17651,18.12945 -29.5745,28.96028 -47.21617,22.83188 z m 20.64525,-21.75765 c 9.07818,-5.30198 11.02545,-19.07813 3.82117,-27.0333 -1.47139,-1.6248 -4.9039,-3.78128 -7.6278,-4.7922 -4.47797,-1.66185 -5.40296,-1.70453 -9.65315,-0.44513 -16.20764,4.80263 -18.30665,26.15618 -3.26442,33.20963 4.78875,2.24542 11.96112,1.84275 16.7242,-0.939 z"
       id="path3708" />
    <path
       style="fill:#ffe6d5;fill-opacity:1;fill-rule:evenodd;stroke:#666666;stroke-width:0.748729;stroke-linecap:round;stroke-linejoin:bevel;stroke-opacity:0.988235"
       d="m 777.26187,789.89994 c -6.32055,-2.0676 -10.95892,-5.32613 -14.04502,-9.86655 -3.90758,-5.74905 -5.09573,-9.81668 -5.09573,-17.44538 0,-23.64784 28.00268,-35.88933 46.44518,-20.30373 1.84702,1.56088 4.63245,5.5315 6.1899,8.82363 3.48525,7.36695 3.85545,16.51545 0.9291,22.9599 -2.49825,5.5017 -8.45235,11.92995 -13.38113,14.4468 -5.04255,2.57498 -15.33449,3.2526 -21.0423,1.38533 z m 15.27488,-16.03605 c 3.1716,-2.0781 6.18697,-7.2624 6.19147,-10.64483 0.0105,-8.16172 -9.303,-15.22893 -16.49077,-12.513 -9.46882,3.5778 -12.17145,14.7132 -5.25068,21.63398 4.31168,4.31167 10.3866,4.90702 15.54998,1.52385 z"
       id="path3747" />
    <path
       style="fill:#cccccc;fill-opacity:1;fill-rule:evenodd;stroke:#666666;stroke-width:0.748729;stroke-linecap:round;stroke-linejoin:bevel;stroke-opacity:0.988235"
       d="m 347.91534,790.62474 c -4.90071,-0.86168 -13.12921,-6.64058 -16.38695,-11.5086 -11.77823,-17.60025 -1.25197,-40.45281 20.21434,-43.88541 6.66605,-1.06595 17.26402,2.65066 22.50601,7.89264 7.17723,7.17724 10.20271,18.85332 7.35129,28.37052 -1.61274,5.38282 -7.59159,12.81675 -12.99486,16.15732 -3.74575,2.31585 -5.99299,2.94008 -11.37293,3.15945 -3.68762,0.15038 -7.88023,0.0668 -9.3169,-0.18592 z m 14.00297,-17.08028 c 6.60749,-4.5927 7.38493,-13.72582 1.65526,-19.4457 -8.20773,-8.19378 -21.45056,-2.75092 -21.4617,8.8209 -0.0101,10.54223 11.24155,16.578 19.80644,10.6248 z"
       id="path3786" />
    <path
       style="fill:#cccccc;fill-opacity:1;fill-rule:evenodd;stroke:#666666;stroke-width:1.05887;stroke-linecap:round;stroke-linejoin:bevel;stroke-opacity:0.988235"
       d="m 1105.4966,803.31309 c -27.541,-7.91745 -45.5244,-36.49343 -40.698,-64.66983 2.2303,-13.02072 7.8337,-23.17101 18.0856,-32.76108 11.8583,-11.09289 20.671,-14.44651 38.4056,-14.61504 12.7407,-0.12108 13.8813,0.12152 23.9402,5.09194 12.9128,6.38061 22.0584,15.69714 28.2596,28.7874 4.0728,8.59765 4.4538,10.57707 4.3742,22.72546 -0.1234,18.81692 -3.4973,26.9635 -16.5893,40.05535 -7.5844,7.58445 -11.9292,10.6998 -18.3431,13.15282 -10.3225,3.94778 -27.8358,4.99245 -37.4348,2.23298 z"
       id="path3940" />
    <path
       style="fill:#afc6e9;fill-opacity:1;fill-rule:evenodd;stroke:#666666;stroke-width:1.05887;stroke-linecap:round;stroke-linejoin:bevel;stroke-opacity:0.988235"
       d="m 1101.1092,656.78582 c -15.2241,-6.3487 -25.2503,-15.89029 -32.2758,-30.71612 -3.9599,-8.35625 -4.3462,-10.41662 -4.3462,-23.17937 0,-12.86134 0.3679,-14.78453 4.4946,-23.49658 5.5612,-11.74038 16.3158,-22.74477 27.7235,-28.3674 7.829,-3.85875 9.5082,-4.14336 24.5138,-4.15503 15.4449,-0.012 16.4662,0.17408 24.7701,4.51276 11.477,5.99669 21.5771,16.34498 27.3011,27.97208 4.3426,8.82102 4.6608,10.42775 4.6608,23.53417 0,13.18606 -0.3008,14.67889 -4.8031,23.84286 -5.8384,11.88361 -16.0328,22.24046 -27.482,27.92008 -7.3708,3.65644 -10.0436,4.18444 -23.0461,4.55269 -12.2339,0.34649 -15.8527,-0.0607 -21.5107,-2.42014 z"
       id="path3979" />
    <path
       style="fill:#d7e3f4;fill-opacity:1;fill-rule:evenodd;stroke:#666666;stroke-width:4.23545;stroke-linecap:round;stroke-linejoin:bevel;stroke-opacity:0.988235"
       d="m 1083.6672,784.72344 c -22.6049,-22.60493 -22.6049,-51.09812 0,-73.70301 22.6049,-22.60491 51.0981,-22.60491 73.7031,0 34.4596,34.4597 12.1148,90.08143 -36.1883,90.08143 -15.8903,0 -25.2014,-4.06507 -37.5148,-16.37842 z"
       id="path4055" />
    <path
       style="fill:#d7e3f4;fill-opacity:1;fill-rule:evenodd;stroke:#666666;stroke-width:0.529432;stroke-linecap:round;stroke-linejoin:bevel;stroke-opacity:0.988235"
       d="m 1104.0594,656.93967 c -16.4243,-5.4884 -28.8822,-17.60395 -36.3261,-35.32798 -1.7086,-4.06829 -1.8486,-5.22611 -2.0694,-17.12601 -0.1921,-10.3523 -0.016,-13.5201 0.9289,-16.77284 2.6834,-9.23064 8.5827,-18.31881 17.0072,-26.20079 5.9982,-5.61182 10.8942,-8.83931 17.8128,-11.74216 4.2976,-1.80316 4.7483,-1.8453 19.8154,-1.85281 l 15.4178,-0.008 6.6447,3.21728 c 14.8849,7.20715 27.3102,20.94626 32.2086,35.61413 1.3711,4.106 1.4845,5.68192 1.2592,17.50986 -0.2369,12.44309 -0.3331,13.20219 -2.2535,17.78807 -4.6424,11.08587 -13.3658,21.60534 -23.5928,28.44995 -9.6443,6.45469 -12.4148,7.16925 -28.9926,7.47766 -12.1877,0.22672 -14.5086,0.0933 -17.8602,-1.02666 z"
       id="path4131" />
    <path
       style="fill:none;stroke:#000000;stroke-width:50;stroke-linecap:round;stroke-linejoin:miter;stroke-miterlimit:4;stroke-dasharray:none;stroke-opacity:1"
       d="m 289.65628,1045.8452 -97.51126,155.169"
       id="path4232" />
    <path
       style="fill:none;stroke:#000000;stroke-width:50;stroke-linecap:round;stroke-linejoin:miter;stroke-miterlimit:4;stroke-dasharray:none;stroke-opacity:1"
       d="M 1101.6998,1237.9544 1014.7072,1076.653"
       id="path4232-3" />
  </g>
</svg>
