<?xml version="1.0" encoding="UTF-8" standalone="no"?>
<svg
   version="1.0"
   width="1665.9698pt"
   height="1568.1923pt"
   viewBox="0 0 1665.9699 1568.1923"
   preserveAspectRatio="xMidYMid meet"
   id="svg8"
   sodipodi:docname="fear2.svg"
   inkscape:version="1.1.2 (0a00cf5339, 2022-02-04)"
   xmlns:inkscape="http://www.inkscape.org/namespaces/inkscape"
   xmlns:sodipodi="http://sodipodi.sourceforge.net/DTD/sodipodi-0.dtd"
   xmlns="http://www.w3.org/2000/svg"
   xmlns:svg="http://www.w3.org/2000/svg">
  <defs
     id="defs12">
    <clipPath
       id="_clipPath_zNMc8mTeoN30gkUzd7glWakACWVBWb02">
      <rect
         width="450"
         height="450"
         id="rect2"
         x="0"
         y="0" />
    </clipPath>
  </defs>
  <sodipodi:namedview
     id="namedview10"
     pagecolor="#ffffff"
     bordercolor="#666666"
     borderopacity="1.0"
     inkscape:pageshadow="2"
     inkscape:pageopacity="0.0"
     inkscape:pagecheckerboard="0"
     inkscape:document-units="pt"
     showgrid="false"
     inkscape:zoom="0.13385319"
     inkscape:cx="-571.52168"
     inkscape:cy="395.9562"
     inkscape:window-width="1920"
     inkscape:window-height="1013"
     inkscape:window-x="0"
     inkscape:window-y="0"
     inkscape:window-maximized="1"
     inkscape:current-layer="layer2"
     fit-margin-top="0"
     fit-margin-left="0"
     fit-margin-right="0"
     fit-margin-bottom="0" />
  <metadata
     id="metadata2">
Created by potrace 1.15, written by Peter Selinger 2001-2017
</metadata>
  <g
     inkscape:groupmode="layer"
     id="layer2"
     inkscape:label="Layer 2"
     transform="translate(180.18225,1.2055578e-5)">
    <path
       style="fill:#93a7ac;fill-opacity:1;fill-rule:evenodd;stroke:none;stroke-width:0.755906;stroke-linecap:round;stroke-linejoin:bevel;stroke-opacity:0.988235"
       id="path5613"
       sodipodi:type="arc"
       sodipodi:cx="652.80267"
       sodipodi:cy="1283.4254"
       sodipodi:rx="832.98492"
       sodipodi:ry="284.76678"
       sodipodi:start="0"
       sodipodi:end="6.2796074"
       sodipodi:open="true"
       sodipodi:arc-type="arc"
       d="M 1485.7876,1283.4254 A 832.98492,284.76678 0 0 1 653.54776,1568.1921 832.98492,284.76678 0 0 1 -180.18092,1283.9348 832.98492,284.76678 0 0 1 650.56742,998.65966 832.98492,284.76678 0 0 1 1485.7823,1282.4065" />
  </g>
  <g
     inkscape:groupmode="layer"
     id="layer1"
     inkscape:label="Layer 1"
     transform="translate(180.18225,1.2055578e-5)">
    <g
       transform="matrix(0.1,0,0,-0.1,-0.112,1065.8509)"
       fill="#000000"
       stroke="none"
       id="g6">
      <path
         d="m 8423,10646 c -23,-8 -62,-25 -85,-39 -24,-14 -623,-606 -1333,-1316 L 5715,8000 4860,8853 c -911,910 -875,877 -969,877 -69,0 -145,-51 -182,-122 -23,-45 -25,-125 -4,-176 11,-26 254,-275 808,-830 l 792,-792 H 3090 C 1659,7810 846,7806 794,7800 679,7785 607,7765 512,7720 411,7672 357,7635 276,7559 162,7453 76,7308 28,7144 L 5,7065 2,3945 C 0,513 -4,738 60,572 108,448 158,372 260,269 363,165 448,108 574,59 739,-5 270,0 6400,0 c 6130,0 5661,-5 5826,59 122,48 212,107 310,205 98,98 157,188 205,310 63,162 59,-54 59,3335 -1,2535 -3,3099 -14,3161 -62,345 -310,613 -655,709 l -96,26 -2960,3 -2960,2 1247,1248 c 1025,1025 1251,1257 1274,1302 37,72 41,182 8,226 -50,67 -131,89 -221,60 z m 577,-3740 c 258,-42 485,-178 646,-388 95,-123 172,-306 194,-463 8,-57 10,-678 8,-2200 l -3,-2120 -23,-85 c -13,-47 -44,-130 -71,-185 -132,-276 -360,-464 -662,-547 l -84,-23 H 5365 1725 l -82,22 c -189,50 -325,127 -458,258 -189,185 -281,383 -305,650 -13,149 -13,4012 0,4161 42,470 374,836 833,919 110,20 7165,21 7287,1 z m 2349,-1711 c 205,-49 384,-229 431,-434 17,-71 17,-192 1,-261 -49,-209 -218,-382 -426,-435 -76,-19 -214,-19 -289,0 -152,40 -302,159 -369,295 -138,275 -52,594 204,760 56,36 149,73 209,83 59,10 180,6 239,-8 z m -17,-1446 c 162,-33 329,-162 400,-309 47,-97 62,-164 60,-275 -1,-160 -62,-295 -184,-411 -113,-107 -246,-157 -409,-156 -371,4 -642,362 -549,726 40,157 139,284 288,369 102,57 271,81 394,56 z"
         id="path4" />
    </g>
    <path
       style="fill:#cccccc;fill-opacity:1;fill-rule:evenodd;stroke:#666666;stroke-width:1.05887;stroke-linecap:round;stroke-linejoin:bevel;stroke-opacity:0.988235"
       d="m 1105.4966,803.31309 c -27.541,-7.91745 -45.5244,-36.49343 -40.698,-64.66983 2.2303,-13.02072 7.8337,-23.17101 18.0856,-32.76108 11.8583,-11.09289 20.671,-14.44651 38.4056,-14.61504 12.7407,-0.12108 13.8813,0.12152 23.9402,5.09194 12.9128,6.38061 22.0584,15.69714 28.2596,28.7874 4.0728,8.59765 4.4538,10.57707 4.3742,22.72546 -0.1234,18.81692 -3.4973,26.9635 -16.5893,40.05535 -7.5844,7.58445 -11.9292,10.6998 -18.3431,13.15282 -10.3225,3.94778 -27.8358,4.99245 -37.4348,2.23298 z"
       id="path3940" />
    <path
       style="fill:#afc6e9;fill-opacity:1;fill-rule:evenodd;stroke:#666666;stroke-width:1.05887;stroke-linecap:round;stroke-linejoin:bevel;stroke-opacity:0.988235"
       d="m 1101.1092,656.78582 c -15.2241,-6.3487 -25.2503,-15.89029 -32.2758,-30.71612 -3.9599,-8.35625 -4.3462,-10.41662 -4.3462,-23.17937 0,-12.86134 0.3679,-14.78453 4.4946,-23.49658 5.5612,-11.74038 16.3158,-22.74477 27.7235,-28.3674 7.829,-3.85875 9.5082,-4.14336 24.5138,-4.15503 15.4449,-0.012 16.4662,0.17408 24.7701,4.51276 11.477,5.99669 21.5771,16.34498 27.3011,27.97208 4.3426,8.82102 4.6608,10.42775 4.6608,23.53417 0,13.18606 -0.3008,14.67889 -4.8031,23.84286 -5.8384,11.88361 -16.0328,22.24046 -27.482,27.92008 -7.3708,3.65644 -10.0436,4.18444 -23.0461,4.55269 -12.2339,0.34649 -15.8527,-0.0607 -21.5107,-2.42014 z"
       id="path3979" />
    <path
       style="fill:#d7e3f4;fill-opacity:1;fill-rule:evenodd;stroke:#666666;stroke-width:4.23545;stroke-linecap:round;stroke-linejoin:bevel;stroke-opacity:0.988235"
       d="m 1083.6672,784.72344 c -22.6049,-22.60493 -22.6049,-51.09812 0,-73.70301 22.6049,-22.60491 51.0981,-22.60491 73.7031,0 34.4596,34.4597 12.1148,90.08143 -36.1883,90.08143 -15.8903,0 -25.2014,-4.06507 -37.5148,-16.37842 z"
       id="path4055" />
    <path
       style="fill:#d7e3f4;fill-opacity:1;fill-rule:evenodd;stroke:#666666;stroke-width:0.529432;stroke-linecap:round;stroke-linejoin:bevel;stroke-opacity:0.988235"
       d="m 1104.0594,656.93967 c -16.4243,-5.4884 -28.8822,-17.60395 -36.3261,-35.32798 -1.7086,-4.06829 -1.8486,-5.22611 -2.0694,-17.12601 -0.1921,-10.3523 -0.016,-13.5201 0.9289,-16.77284 2.6834,-9.23064 8.5827,-18.31881 17.0072,-26.20079 5.9982,-5.61182 10.8942,-8.83931 17.8128,-11.74216 4.2976,-1.80316 4.7483,-1.8453 19.8154,-1.85281 l 15.4178,-0.008 6.6447,3.21728 c 14.8849,7.20715 27.3102,20.94626 32.2086,35.61413 1.3711,4.106 1.4845,5.68192 1.2592,17.50986 -0.2369,12.44309 -0.3331,13.20219 -2.2535,17.78807 -4.6424,11.08587 -13.3658,21.60534 -23.5928,28.44995 -9.6443,6.45469 -12.4148,7.16925 -28.9926,7.47766 -12.1877,0.22672 -14.5086,0.0933 -17.8602,-1.02666 z"
       id="path4131" />
    <path
       style="fill:none;stroke:#000000;stroke-width:50;stroke-linecap:round;stroke-linejoin:miter;stroke-miterlimit:4;stroke-dasharray:none;stroke-opacity:1"
       d="m 289.65628,1045.8452 -97.51126,155.169"
       id="path4232" />
    <path
       style="fill:none;stroke:#000000;stroke-width:50;stroke-linecap:round;stroke-linejoin:miter;stroke-miterlimit:4;stroke-dasharray:none;stroke-opacity:1"
       d="M 1101.6998,1237.9544 1014.7072,1076.653"
       id="path4232-3" />
    <g
       clip-path="url(#_clipPath_zNMc8mTeoN30gkUzd7glWakACWVBWb02)"
       id="g22"
       style="isolation:isolate"
       transform="matrix(1.0403338,0,0,1.0403338,328.16956,460.30708)">
      <g
         id="Group">
        <path
           d="m 300.587,315.19 c -12.094,0 -6.067,-28.179 -6.067,-32.24 1.027,-2.006 -9.051,-121.916 -9.051,-121.916 1.028,-4.062 3.024,-9.101 10.078,-9.101 h 2.006 c 16.145,0 30.235,-13.102 30.235,-29.207 0,-16.145 -13.102,-29.257 -30.235,-29.257 -16.095,0 -30.235,13.112 -30.235,29.257 0,3.024 0,6.017 1.028,9.051 0,0 6.017,15.117 -7.054,13.111 0,0 -113.884,39.285 -118.923,40.313 -14.14,25.196 -50.391,12.094 -61.497,4.011 -3.024,-4.011 -9.051,-7.044 -16.095,-7.044 -12.216,0.087 -22.103,9.956 -22.213,22.172 1.028,11.096 11.106,21.174 23.2,21.174 4.062,0 9.101,-1.028 12.094,-3.023 18.141,-9.071 51.409,-3.044 55.43,13.101 v 1.028 c 1.008,2.983 24.188,49.363 27.222,53.374 15.117,28.229 -22.213,39.336 -22.213,39.336 -10.078,0 -19.128,9.05 -19.128,20.156 0,12.084 10.078,22.162 22.172,22.162 12.073,0 22.152,-10.078 22.152,-22.172 3.033,-23.18 15.117,-38.297 37.329,-39.325 2.984,1.028 57.436,-2.983 61.447,-4.011 16.146,3.023 7.055,16.145 7.055,38.297 0,16.105 13.102,29.227 30.235,29.227 16.135,0 30.234,-13.122 30.234,-29.227 1.018,-16.125 -12.094,-29.247 -29.216,-29.247 z"
           fill="#2e7d32"
           id="path7" />
        <path
           d="m 367.123,167.06 c -9.101,0 -16.145,4.052 -19.179,12.074 -9.05,13.112 -28.219,16.145 -40.313,10.078 -2.005,-5.039 -129.001,-39.285 -129.001,-38.257 -16.105,9.051 -31.222,-19.178 -30.234,-32.29 v -0.978 c 1.017,-3.033 1.017,-6.067 1.017,-9.1 0,-16.095 -13.101,-29.207 -30.234,-29.207 -16.146,0 -30.235,13.102 -30.235,29.207 0,13.111 9.05,23.19 19.129,28.229 17.173,7.054 40.312,27.211 38.307,41.34 7.055,12.084 -9.05,74.559 -8.063,79.598 -9.06,9.101 -27.211,7.055 -34.256,4.062 -3.023,-4.062 -9.05,-6.067 -15.117,-6.067 -16.145,0 -30.234,13.101 -30.234,29.206 0,16.146 13.101,29.257 30.234,29.257 10.078,0 18.141,-4.061 24.168,-12.094 9.1,-13.101 24.218,-25.195 37.329,-25.195 2.006,2.993 164.235,-60.469 164.235,-61.487 1.028,-6.067 25.195,-12.094 46.38,-7.055 h 6.067 c 12.084,0 22.162,-10.078 22.162,-22.152 0,-12.134 -10.078,-19.179 -22.172,-19.179 z"
           fill="#4caf50"
           id="path9" />
        <path
           d="m 315.704,225.514 c 0,50.079 -40.625,90.704 -90.704,90.704 -50.079,0 -90.704,-40.625 -90.704,-90.704 0,-50.079 40.625,-90.704 90.704,-90.704 50.079,0 90.704,40.625 90.704,90.704 z"
           fill="#4caf50"
           id="path11" />
        <path
           d="m 248.18,311.179 c 3.044,-6.067 -8.063,-8.063 -17.113,-8.063 -9.101,0 -18.151,5.039 -16.145,11.086 24.167,36.262 6.067,41.301 -5.039,48.396 -9.051,4.011 -15.118,15.117 -15.118,25.195 0,16.095 13.102,29.207 30.235,29.207 17.133,0 30.235,-13.102 30.235,-29.207 1.028,-28.229 -17.133,-67.564 -7.055,-76.614 z m 126.965,-56.458 c -6.017,0 -12.084,1.028 -16.095,4.061 -18.151,7.045 -34.296,-6.067 -46.38,-14.14 -6.016,-4.011 -13.101,6.068 -15.117,9.101 -2.006,3.024 -5.039,17.123 7.055,17.123 20.156,-7.055 45.352,28.219 45.352,28.219 4.051,10.078 15.117,16.105 27.241,16.105 16.095,0 30.235,-13.061 30.235,-29.207 -3.034,-18.141 -16.146,-31.262 -32.291,-31.262 z M 198.776,79.38 c 19.179,39.285 18.151,54.402 7.096,58.454 -9.101,7.054 6.016,16.105 17.122,14.109 11.056,-2.016 21.134,-7.055 14.09,-17.133 -17.123,-30.235 5.039,-50.391 5.039,-50.391 7.055,-4.011 12.094,-13.102 12.094,-22.172 C 254.217,46.122 241.145,33 223.982,33 c -17.133,0 -30.235,13.112 -30.235,29.257 0,4.011 1.018,9.05 3.024,13.102 0,2.993 0,2.993 2.016,4.021 z"
           fill="#8bc34a"
           id="path13" />
        <path
           d="m 208.855,225.514 c -16.095,0 -30.235,-13.102 -30.235,-29.207 0,-16.145 13.112,-29.257 30.235,-29.257 17.173,0 30.234,13.112 30.234,29.257 0,16.095 -13.061,29.207 -30.234,29.207 z"
           fill="#c5e1a5"
           id="path15" />
        <path
           d="m 193.737,269.838 c -9.05,0 -15.117,-6.017 -15.117,-15.117 0,-9.051 6.067,-15.118 15.117,-15.118 9.101,0 15.118,6.067 15.118,15.118 0,9.1 -6.017,15.117 -15.118,15.117 z"
           fill="#f1f8e9"
           id="path17" />
        <path
           d="m 247.172,285.983 c -12.094,0 -22.172,-10.078 -22.172,-22.172 0,-12.074 10.078,-22.152 22.172,-22.152 12.074,0 22.152,10.078 22.152,22.162 0,12.084 -10.078,22.162 -22.162,22.162 z"
           fill="#dcedc8"
           id="path19" />
      </g>
    </g>
  </g>
</svg>
