<?xml version="1.0" encoding="UTF-8" standalone="no"?>
<!-- Created with Inkscape (http://www.inkscape.org/) -->

<svg
   xmlns:dc="http://purl.org/dc/elements/1.1/"
   xmlns:cc="http://creativecommons.org/ns#"
   xmlns:rdf="http://www.w3.org/1999/02/22-rdf-syntax-ns#"
   xmlns:svg="http://www.w3.org/2000/svg"
   xmlns="http://www.w3.org/2000/svg"
   xmlns:sodipodi="http://sodipodi.sourceforge.net/DTD/sodipodi-0.dtd"
   xmlns:inkscape="http://www.inkscape.org/namespaces/inkscape"
   width="160mm"
   height="80mm"
   viewBox="0 0 160 80"
   version="1.1"
   id="svg1499"
   inkscape:version="0.92.5 (2060ec1f9f, 2020-04-08)"
   sodipodi:docname="public-private-key.svg">
  <defs
     id="defs1493" />
  <sodipodi:namedview
     id="base"
     pagecolor="#ffffff"
     bordercolor="#666666"
     borderopacity="1.0"
     inkscape:pageopacity="0.0"
     inkscape:pageshadow="2"
     inkscape:zoom="1.4142136"
     inkscape:cx="85.151928"
     inkscape:cy="264.72268"
     inkscape:document-units="mm"
     inkscape:current-layer="layer2"
     showgrid="false"
     inkscape:window-width="1920"
     inkscape:window-height="1129"
     inkscape:window-x="0"
     inkscape:window-y="0"
     inkscape:window-maximized="1" />
  <metadata
     id="metadata1496">
    <rdf:RDF>
      <cc:Work
         rdf:about="">
        <dc:format>image/svg+xml</dc:format>
        <dc:type
           rdf:resource="http://purl.org/dc/dcmitype/StillImage" />
        <dc:title />
      </cc:Work>
    </rdf:RDF>
  </metadata>
  <g
     inkscape:groupmode="layer"
     id="layer2"
     inkscape:label="Ebene 2">
    <rect
       style="fill:#ffffff;stroke-width:0.25050756"
       id="rect14"
       width="64.545586"
       height="65.293938"
       x="-0.074606776"
       y="5.7818007"
       ry="3.5389671" />
  </g>
  <g
     inkscape:label="Ebene 1"
     inkscape:groupmode="layer"
     id="layer1"
     transform="translate(0,-217)">
    <path
       style="fill:#000000;stroke-width:0.07252039"
       d="m 3.1003933,273.85652 v -10.04407 h 10.0078097 10.00781 v 10.04407 10.04408 H 13.108203 3.1003933 Z m 15.5918797,0 v -5.5478 h -5.58407 -5.5840597 v 5.5478 5.54781 h 5.5840597 5.58407 z m -8.9200097,-8.2e-4 v -3.37293 l 3.3178097,0.0188 3.31782,0.0188 0.0188,3.35407 0.0188,3.35407 h -3.33666 -3.3366697 v -3.37292 z m 22.2637597,7.79667 v -2.24804 h -2.21186 -2.21188 v -4.46 -4.46001 h 2.21188 2.21186 v -2.21187 -2.21187 h -2.21186 -2.21188 v -2.24813 -2.24813 h 2.21188 2.21186 v 2.24813 2.24813 h 4.45897 4.45896 l 0.0192,-2.23 0.0192,-2.23001 7.77781,-0.0184 7.77781,-0.0185 v 2.24846 2.24846 h 2.24813 2.24813 v 4.46001 4.46 h -2.24813 -2.24813 v 2.21187 2.21188 h 2.24813 2.24813 v 2.24812 2.24814 h -2.24813 -2.24813 v -2.24815 -2.24814 h -1.0878 -1.08781 v 2.24814 2.24812 h -2.24814 -2.24813 v -2.24812 -2.24814 h -2.21187 -2.21187 v 2.24814 2.24812 h -2.24814 -2.24812 v -4.46 -4.46001 h -4.46001 -4.46 v 2.21083 2.21082 l 2.23,0.0192 2.23,0.0192 0.0192,2.23 0.0192,2.23001 h -2.24918 -2.24918 z m 20.08816,-4.46 v -2.21187 h -1.12407 -1.12407 v 2.21187 2.21187 h 1.12407 1.12407 z m -6.67187,-4.46001 v -2.24812 h 2.21186 2.21187 v -2.21188 -2.21187 h -2.21187 -2.21186 v 2.21187 2.21188 h -2.24814 -2.24814 v 2.24812 2.24814 h 2.24814 2.24814 z M 7.5241433,257.14057 v -2.24814 h -2.21188 -2.21187 v -2.21186 -2.21188 h 2.21187 2.21188 v 2.21188 2.21186 h 2.24812 2.2481397 v -2.21186 -2.21188 h 10.00782 10.0078 v -3.33594 -3.33593 h 2.24814 2.24813 v 3.33593 3.33594 h 5.54781 5.54781 v 2.21188 2.21186 h 2.24813 2.24814 v -2.21186 -2.21188 h 2.21186 2.21188 v 2.21188 2.21186 h 2.24813 2.24813 v 2.24852 2.2485 l -6.69,-0.0185 -6.69001,-0.0184 -0.0192,-2.23 -0.0192,-2.22999 h -2.21083 -2.21081 v 2.24812 2.24814 h -3.33595 -3.33594 v -2.24814 -2.24812 h -2.24814 -2.24812 v 2.24812 2.24814 h -5.54677 -5.54676 l -0.0192,-2.23 -0.0192,-2.23 -2.23,-0.0192 -2.23001,-0.0192 v 2.24918 2.24918 h -4.45996 -4.4600097 z m -4.42375,-21.17595 V 225.9568 h 10.0078097 10.00781 v 10.00782 10.0078 H 13.108203 3.1003933 Z m 15.5918797,0 v -5.58407 h -5.58407 -5.5840597 v 5.58407 5.58406 h 5.5840597 5.58407 z m -8.9200097,0 v -3.33595 h 3.3359397 3.33594 v 3.33595 3.33593 h -3.33594 -3.3359397 z m 31.1837697,0 V 225.9568 h 10.04408 10.04407 v 10.00782 10.0078 h -10.04407 -10.04408 z m 15.59189,0 v -5.58407 h -5.54781 -5.5478 v 5.58407 5.58406 h 5.5478 5.54781 z m -8.87167,3.28758 c -0.0265,-0.0265 -0.0484,-1.52775 -0.0484,-3.33593 v -3.2876 h 3.37219 3.37221 v 3.33595 3.33593 h -3.32385 c -1.82813,0 -3.34562,-0.0217 -3.37221,-0.0484 z m -20.06397,0.0494 v -4.42269 l 2.19374,-0.0192 2.19374,-0.0192 0.0192,-2.23 0.0192,-2.23 h -2.21291 -2.21292 v -2.21189 -2.21187 h 2.21187 2.21188 v 2.21187 2.21188 h 2.24812 2.24814 v 4.46 4.46 h -2.24814 -2.24812 v 2.21187 2.21188 h -2.21188 -2.21187 z"
       id="path1523"
       inkscape:connector-curvature="0" />
    <path
       style="fill:#008000;stroke:#91978d;stroke-width:0.36221763;stroke-opacity:0.96986299"
       d="m 132.13568,295.32015 c 0.32039,-0.30293 0.76413,-1.33292 1.68654,-3.91477 0.74045,-2.07249 0.75487,-2.29515 0.2137,-3.29939 -0.97061,-1.80113 -9.17817,-15.50486 -13.52519,-22.58232 l -0.67858,-1.10479 0.25837,-0.41684 c 0.14211,-0.22927 0.24337,-0.42937 0.22503,-0.44467 -0.0183,-0.0153 -0.43248,0.0506 -0.92036,0.14656 -0.48786,0.0959 -1.54836,0.22382 -2.35664,0.28425 -7.79099,0.58254 -14.94938,-3.87504 -17.592254,-10.95484 -0.919177,-2.46233 -1.190574,-4.90734 -0.854547,-7.69855 0.071,-0.58942 0.10974,-1.10368 0.0862,-1.14281 -0.0727,-0.12072 -1.181784,0.7638 -2.131561,1.69996 -1.84198,1.81558 -3.35968,4.4867 -4.02523,7.08435 -0.18607,0.72621 -0.18171,5.02576 0.006,5.91749 0.2145,1.01905 0.86135,2.70141 1.45111,3.77415 1.34885,2.4535 3.797977,4.78699 6.345622,6.04604 1.90538,0.94164 3.45432,1.38233 5.76575,1.64041 1.76095,0.19663 1.68373,0.16864 2.02011,0.7322 0.54849,0.91892 0.59619,0.94009 2.23774,0.99344 l 1.43382,0.0466 0.37045,0.61786 0.37046,0.61786 -0.28396,1.52548 c -0.34572,1.85739 -0.36371,2.47659 -0.0817,2.81548 0.25184,0.30272 0.68997,0.42796 2.98142,0.85219 2.04125,0.37792 2.01882,0.36513 2.66271,1.51838 l 0.3366,0.6029 -0.52908,1.30493 c -0.29099,0.71771 -0.52907,1.4431 -0.52907,1.61197 0,0.41449 0.35995,0.7986 1.1681,1.24649 0.7551,0.41849 1.08968,0.72994 1.38742,1.29146 0.1993,0.37587 0.20782,0.48328 0.14465,1.82213 l -0.0672,1.42271 0.30624,0.32978 c 0.16843,0.18138 0.58341,0.46946 0.92218,0.64019 0.79965,0.40297 1.0248,0.64664 1.9018,2.05813 0.95404,1.53547 1.13261,1.7282 1.76044,1.89992 0.92394,0.25271 5.80093,1.16987 6.53117,1.22823 0.69479,0.0555 0.72501,0.0491 1.00176,-0.21255 z m -4.02623,-5.30127 c -1.04076,-1.63106 -13.0016,-21.38851 -13.0016,-21.47662 0,-0.0754 1.5442,-1.12193 1.65448,-1.12128 0.0686,3.6e-4 3.29957,5.30072 8.03788,13.18582 4.25259,7.07681 5.38728,9.00289 5.38728,9.14463 0,0.47048 -0.62896,0.88927 -1.27951,0.85194 -0.42562,-0.0244 -0.4548,-0.0458 -0.79853,-0.58449 z m 25.19032,-17.99264 c 1.51782,-0.48287 3.16909,-1.0277 3.66947,-1.21074 0.86823,-0.31758 0.91497,-0.3491 1.02298,-0.68996 0.12979,-0.40962 0.0533,-1.02886 -0.4125,-3.34073 -0.33947,-1.68469 -0.64158,-2.83984 -0.83543,-3.19428 -0.28554,-0.52207 -0.11194,-0.42041 -9.85091,-5.76883 -1.51782,-0.83356 -3.53583,-1.94347 -4.48447,-2.46649 -0.94864,-0.52302 -3.89233,-2.13962 -6.54154,-3.59244 l -4.81674,-2.64151 0.0649,-0.67806 c 0.12524,-1.30673 -0.28305,-3.91265 -0.85168,-5.43591 -0.40018,-1.07202 -1.20897,-2.57543 -1.94593,-3.61715 -1.91908,-2.71271 -5.27115,-4.89434 -8.85373,-5.76227 -0.92926,-0.22513 -1.03364,-0.23062 -3.71579,-0.1951 -2.59188,0.0343 -2.81247,0.0508 -3.62793,0.27166 -0.47755,0.12932 -0.91851,0.28262 -0.9799,0.34068 -0.0831,0.0786 -0.02,0.42087 0.24731,1.34104 0.42569,1.46516 0.71941,2.95787 0.81701,4.15222 0.0562,0.68668 0.11798,0.92851 0.29796,1.16486 1.22256,1.60544 1.27435,1.74066 1.27435,3.32692 v 1.16486 l -0.37458,0.6293 c -0.79137,1.32948 -1.93078,2.06416 -3.48337,2.24604 -0.53099,0.0622 -0.91982,0.006 -0.91982,0.006 -0.0613,-0.058 0.0934,-0.4709 0.43481,-1.1598 0.65737,-1.32638 1.04699,-2.43123 1.34668,-3.81874 0.19237,-0.89065 0.23147,-1.35503 0.23147,-2.74908 0,-1.39405 -0.0391,-1.85843 -0.23147,-2.74907 -1.28476,-5.9482 -5.73471,-10.44313 -11.806094,-11.92549 -3.545418,-0.86562 -7.286808,-0.49229 -10.724598,1.07017 -4.54621,2.06622 -7.65022,5.8233 -8.73745,10.57576 -0.18972,0.82927 -0.22386,1.25557 -0.22388,2.79566 -2e-5,0.99945 0.0586,2.21557 0.13034,2.70248 0.32308,2.19365 1.41293,4.61592 2.99013,6.64574 0.77862,1.00207 2.37636,2.48117 3.46684,3.20939 1.01516,0.67793 3.41217,1.82815 4.19738,2.01413 l 0.54208,0.1284 0.0773,-0.3842 c 0.0425,-0.21131 0.14441,-0.71968 0.22644,-1.12971 0.0821,-0.41003 0.17209,-0.81856 0.20014,-0.90783 0.0358,-0.11406 -0.0315,-0.19485 -0.22644,-0.27168 -3.57035,-1.40734 -5.8959,-3.32539 -7.39697,-6.10085 -1.76335,-3.2604 -1.89099,-7.33303 -0.33667,-10.74185 1.60709,-3.52454 5.69197,-6.59749 9.50622,-7.15127 1.20108,-0.17439 4.2348,-0.12017 5.341964,0.0955 3.645778,0.71005 7.166888,3.37574 8.874408,6.71849 1.25163,2.45025 1.61745,5.16298 1.06714,7.91329 -0.22357,1.11736 -1.04593,3.10394 -1.54533,3.73312 -0.18808,0.23695 -0.34557,0.12073 -0.74639,-0.55076 -0.47768,-0.80029 -0.63753,-1.4618 -0.57466,-2.37807 0.0871,-1.26956 0.30756,-1.70703 1.56105,-3.09796 0.39862,-0.44233 0.45796,-0.95546 0.2404,-2.07849 -0.25949,-1.33938 -0.42677,-1.81582 -0.63756,-1.81582 -0.25637,0 -1.8985,1.65111 -2.69205,2.70678 -1.14979,1.52958 -2.11106,3.56813 -2.513,5.32933 -0.14172,0.621 -0.17579,1.21263 -0.17579,3.05337 0,2.51179 0.0593,2.91369 0.68839,4.66648 1.78541,4.97442 6.44837,8.79817 11.64462,9.54889 1.54385,0.22305 4.44954,0.2253 5.5556,0.004 1.20072,-0.23991 2.73996,-0.74265 3.99167,-1.30376 l 1.08416,-0.486 0.64064,0.3517 c 1.077,0.59127 1.14833,0.58062 2.79831,-0.41772 l 0.77783,-0.47064 0.63138,0.30952 c 0.73705,0.36132 0.7985,0.45378 1.4714,2.21391 0.25072,0.65585 0.53792,1.34575 0.63819,1.53311 0.2264,0.42297 0.62882,0.73102 0.95497,0.73102 0.13627,0 1.15622,-0.29354 2.26658,-0.65232 1.11037,-0.35878 2.13588,-0.65232 2.27894,-0.65232 0.2651,0 1.70967,0.74331 1.84402,0.94885 0.0407,0.0622 0.17175,0.73577 0.29132,1.4968 0.29606,1.88459 0.36857,1.95422 2.11232,2.02838 1.10259,0.0469 1.14877,0.0576 1.69728,0.39348 0.53061,0.32492 0.5954,0.40725 1.09904,1.39655 0.80157,1.57455 0.92034,1.657 2.38729,1.657 1.06268,0 1.12781,0.024 3.27291,1.20444 0.65897,0.36263 1.27669,0.65607 1.37271,0.65208 0.096,-0.004 1.41644,-0.40234 2.93426,-0.88522 z m -2.66867,-5.30842 c -2.24365,-1.16214 -8.81607,-4.73231 -15.5649,-8.45495 -5.15414,-2.84301 -5.81214,-3.23151 -5.78968,-3.41837 0.014,-0.11595 0.19136,-0.53834 0.39425,-0.93866 l 0.36889,-0.72785 2.46399,1.3545 c 1.35519,0.74498 3.46191,1.90153 4.68159,2.5701 9.88246,5.41713 14.95286,8.25774 15.72029,8.80708 0.27105,0.19401 0.50658,0.44276 0.52342,0.55276 0.0326,0.21295 -0.19678,0.70638 -0.46024,0.99002 -0.2512,0.27045 -0.6224,0.1538 -2.33761,-0.73463 z"
       id="path1536"
       inkscape:connector-curvature="0"
       sodipodi:nodetypes="cccsccccssccsccssscccccccscccsccccscsscccscsscccccscccccccccccccscscsccccscccssscsccccccssscssscccssssssccccccccccssscssccscccccsccccsccac" />
    <path
       style="fill:#ff0000;stroke:#91978d;stroke-width:0.37797621;stroke-opacity:0.96986299"
       d="m 127.2762,294.52705 c -2.85552,-0.59608 -3.07182,-0.71337 -4.07799,-2.21152 -0.58439,-0.87014 -1.56645,-1.9409 -2.18234,-2.37945 -0.89039,-0.63402 -1.07219,-0.98711 -0.88737,-1.72347 0.31213,-1.24362 -0.44963,-2.96617 -1.57902,-3.57058 -1.01772,-0.54467 -1.12493,-1.17591 -0.50281,-2.96055 0.65932,-1.8913 -0.22608,-2.88367 -3.14268,-3.52235 l -2.3772,-0.52054 0.11236,-2.38448 c 0.13405,-2.84461 -0.25477,-3.44993 -2.21608,-3.44993 -0.99493,0 -1.60209,-0.22545 -1.95177,-0.72466 -0.3382,-0.48287 -1.32284,-0.86866 -2.95074,-1.15615 -5.32792,-0.94097 -9.669294,-4.04075 -11.658868,-8.32456 -1.159783,-2.49714 -1.512197,-6.71907 -0.779346,-9.33654 0.568489,-2.03045 3.006405,-5.82844 4.274669,-6.65944 l 0.886207,-0.58067 -0.0118,2.52419 c -0.0317,6.77527 4.359748,13.00815 10.997628,15.60911 1.73035,0.67802 2.95888,0.85312 6.13257,0.87405 l 3.96875,0.0262 0.75596,1.34104 c 0.41577,0.73758 3.70903,6.248 7.31834,12.24537 7.303,12.13493 7.09982,11.54112 5.34481,15.62073 -0.97021,2.25534 -0.85386,2.22846 -5.47326,1.26424 z m 2.47335,-3.83736 c 0.40211,-0.21521 0.73111,-0.56459 0.73111,-0.77639 0,-0.47937 -12.71637,-21.85369 -13.45256,-22.61174 -0.30071,-0.30965 -2.04447,0.71871 -2.04447,1.20568 0,0.53445 12.15211,20.80487 13.13639,21.91226 0.69034,0.77668 0.68483,0.77578 1.62953,0.27019 z"
       id="path1552"
       inkscape:connector-curvature="0" />
    <path
       style="fill:#000000;stroke:#91978d;stroke-width:0.09449405;stroke-opacity:0.96986299"
       d="m 89.8491,254.3781 c -0.813702,-0.25405 -2.987727,-1.33611 -3.873468,-1.92792 -2.086586,-1.39415 -3.898913,-3.46864 -5.036703,-5.76528 -1.065266,-2.15025 -1.327378,-3.26192 -1.403636,-5.95312 -0.06459,-2.27962 0.02895,-3.0463 0.575167,-4.71374 1.726647,-5.27099 6.072158,-9.00593 11.959251,-10.27892 0.866228,-0.1873 1.262097,-0.21454 3.118303,-0.21454 2.382561,0 3.144678,0.11403 5.089106,0.76142 4.70907,1.56785 8.33185,5.15558 9.8347,9.73951 0.56285,1.71678 0.69977,2.73683 0.642,4.78301 -0.0526,1.86459 -0.22611,2.80198 -0.80836,4.36815 -0.32178,0.86553 -1.12556,2.59491 -1.20607,2.59491 -0.0299,0 -0.34588,-0.12797 -0.70225,-0.28438 -0.35637,-0.15641 -0.84451,-0.36864 -1.08476,-0.47162 l -0.43681,-0.18724 0.24627,-0.40245 c 0.71205,-1.16359 1.29962,-2.83978 1.52127,-4.33982 0.56763,-3.84163 -0.77533,-7.66915 -3.69308,-10.52548 -1.72149,-1.68525 -3.70534,-2.81648 -5.992191,-3.41687 -0.799244,-0.20983 -1.157654,-0.24345 -3.048394,-0.28599 -2.465427,-0.0555 -3.234896,0.026 -4.663175,0.49391 -2.033014,0.66596 -3.706614,1.71961 -5.397442,3.39806 -2.063946,2.04883 -3.061028,3.99015 -3.497035,6.80871 -0.277159,1.79171 -0.04185,4.16365 0.585891,5.90588 1.208728,3.35469 3.900376,6.0585 7.531274,7.5653 0.496824,0.20618 0.73233,0.3543 0.73233,0.4606 0,0.13073 -0.339019,1.80966 -0.404672,2.00408 -0.0113,0.0335 -0.275686,-0.0188 -0.587516,-0.11617 z"
       id="path1556"
       inkscape:connector-curvature="0" />
    <path
       style="fill:#000000;stroke:#91978d;stroke-width:0.09449405;stroke-opacity:0.96986299"
       d="m 89.621141,254.19541 c -0.817653,-0.29408 -3.081459,-1.46812 -3.868571,-2.00631 -1.142802,-0.78138 -2.874944,-2.57329 -3.725347,-3.85389 -1.234969,-1.85971 -2.017667,-3.74937 -2.254437,-5.44287 -0.162203,-1.16016 -0.164629,-4.65142 -0.0037,-5.35217 0.645263,-2.8101 2.01073,-5.28591 4.027308,-7.30215 2.055844,-2.0555 4.280934,-3.32096 7.328397,-4.16783 1.422704,-0.39535 3.19129,-0.52834 5.433406,-0.40854 1.551115,0.0829 1.860822,0.14012 3.401776,0.6287 5.383717,1.70695 9.346527,6.00085 10.507937,11.38587 0.21108,0.97869 0.23337,4.07686 0.0373,5.18167 -0.1816,1.02316 -0.67759,2.476 -1.27279,3.72816 l -0.518,1.08975 -0.78645,-0.34001 c -0.43254,-0.18701 -0.89609,-0.37969 -1.0301,-0.42818 l -0.24366,-0.0882 0.45261,-0.87778 c 0.95942,-1.86071 1.33951,-3.44401 1.34143,-5.58787 0.001,-1.29587 -0.0336,-1.66211 -0.24324,-2.56313 -0.87482,-3.75973 -3.43804,-6.95651 -7.01805,-8.75273 -0.89837,-0.45074 -2.324771,-0.95478 -3.124188,-1.10398 -0.838172,-0.15643 -4.161939,-0.22592 -5.187795,-0.10845 -1.148741,0.13154 -2.876894,0.68818 -4.013197,1.29266 -2.426031,1.29057 -4.84686,3.72039 -5.903698,5.92561 -0.793562,1.65586 -1.13325,3.22687 -1.127718,5.21553 0.01013,3.63891 1.231199,6.49545 3.844565,8.99385 1.10271,1.0542 2.29017,1.85857 3.840517,2.60153 0.651272,0.3121 1.199158,0.58145 1.217525,0.59855 0.03219,0.03 -0.2273,1.42951 -0.327731,1.76756 -0.0613,0.20634 -0.14751,0.20355 -0.784069,-0.0254 z"
       id="path1558"
       inkscape:connector-curvature="0" />
    <path
       style="fill:#666666;stroke-width:0.17677669"
       d="m 339.63037,140.61501 c -4.20449,-1.43265 -13.19554,-6.17622 -16.68377,-8.80215 -2.12561,-1.60015 -7.91936,-7.36599 -10.0658,-10.0173 -4.37621,-5.40556 -8.17751,-12.57159 -9.99419,-18.84061 -1.30591,-4.506388 -1.57411,-7.696281 -1.46138,-17.381055 l 0.0816,-7.011391 0.54827,-2.147743 c 3.15808,-12.371353 9.95722,-22.797722 20.18438,-30.952446 6.05474,-4.827805 12.75927,-8.159163 21.65514,-10.760039 4.82767,-1.411459 10.0463,-1.937215 17.67767,-1.780954 7.9362,0.162502 10.25327,0.51919 16.26346,2.503584 9.45581,3.122038 16.81961,7.525622 23.48617,14.044818 7.75206,7.580714 12.91732,16.591652 15.56195,27.148236 0.68294,2.726105 0.81785,4.170824 0.93269,9.987883 0.16557,8.387356 -0.17791,11.429252 -1.88631,16.705397 -1.42151,4.39009 -4.88254,12.24395 -5.35587,12.15367 -0.12666,-0.0242 -1.26026,-0.48914 -2.51911,-1.03329 -1.25884,-0.54414 -2.72632,-1.15071 -3.26107,-1.34792 -0.53475,-0.19721 -1.03444,-0.41489 -1.11042,-0.48372 -0.076,-0.0688 0.65707,-1.74407 1.629,-3.72275 3.78069,-7.69687 4.93306,-13.195556 4.73554,-22.596237 -0.0802,-3.815762 -0.14894,-4.624413 -0.55113,-6.481052 -2.08409,-9.620816 -6.62333,-17.955273 -13.53012,-24.842553 -5.79179,-5.775416 -12.39735,-9.836088 -20.29006,-12.473019 -4.87134,-1.627499 -6.3153,-1.809905 -15.51893,-1.960408 -7.51887,-0.122952 -9.4764,0.01384 -13.15436,0.919255 -9.79565,2.411412 -17.18522,6.752482 -24.86262,14.605779 -5.48394,5.609582 -8.6022,10.501965 -10.85168,17.025683 -2.28926,6.639103 -2.88259,15.35546 -1.58617,23.301843 1.27824,7.834979 4.4665,14.833289 9.57876,21.025579 1.68976,2.04674 5.55262,5.88248 7.55366,7.50063 3.3274,2.69071 7.20041,5.04671 12.47926,7.59128 l 3.3825,1.63047 -0.15966,1.03362 c -0.32786,2.12241 -1.05284,5.44476 -1.23639,5.66593 -0.2412,0.29062 -0.1835,0.29784 -1.67102,-0.20902 z"
       id="path12"
       inkscape:connector-curvature="0"
       transform="matrix(0.26458333,0,0,0.26458333,0,217)" />
  </g>
</svg>
